%TF.GenerationSoftware,KiCad,Pcbnew,7.0.11-7.0.11~ubuntu22.04.1*%
%TF.CreationDate,2025-05-22T12:56:25-05:00*%
%TF.ProjectId,hf_bias_tee,68665f62-6961-4735-9f74-65652e6b6963,-*%
%TF.SameCoordinates,Original*%
%TF.FileFunction,Drillmap*%
%TF.FilePolarity,Positive*%
%FSLAX45Y45*%
G04 Gerber Fmt 4.5, Leading zero omitted, Abs format (unit mm)*
G04 Created by KiCad (PCBNEW 7.0.11-7.0.11~ubuntu22.04.1) date 2025-05-22 12:56:25*
%MOMM*%
%LPD*%
G01*
G04 APERTURE LIST*
%ADD10C,0.050000*%
%ADD11C,0.200000*%
G04 APERTURE END LIST*
D10*
X14605000Y-10795000D02*
X12065000Y-10795000D01*
X12065000Y-8255000D02*
X14605000Y-8255000D01*
X12065000Y-10795000D02*
X12065000Y-8255000D01*
X14605000Y-8255000D02*
X14605000Y-10795000D01*
D11*
X12323277Y-11108984D02*
X12323277Y-10908984D01*
X12323277Y-10908984D02*
X12370896Y-10908984D01*
X12370896Y-10908984D02*
X12399467Y-10918508D01*
X12399467Y-10918508D02*
X12418515Y-10937555D01*
X12418515Y-10937555D02*
X12428039Y-10956603D01*
X12428039Y-10956603D02*
X12437562Y-10994698D01*
X12437562Y-10994698D02*
X12437562Y-11023270D01*
X12437562Y-11023270D02*
X12428039Y-11061365D01*
X12428039Y-11061365D02*
X12418515Y-11080412D01*
X12418515Y-11080412D02*
X12399467Y-11099460D01*
X12399467Y-11099460D02*
X12370896Y-11108984D01*
X12370896Y-11108984D02*
X12323277Y-11108984D01*
X12523277Y-11108984D02*
X12523277Y-10975650D01*
X12523277Y-11013746D02*
X12532801Y-10994698D01*
X12532801Y-10994698D02*
X12542324Y-10985174D01*
X12542324Y-10985174D02*
X12561372Y-10975650D01*
X12561372Y-10975650D02*
X12580420Y-10975650D01*
X12647086Y-11108984D02*
X12647086Y-10975650D01*
X12647086Y-10908984D02*
X12637562Y-10918508D01*
X12637562Y-10918508D02*
X12647086Y-10928031D01*
X12647086Y-10928031D02*
X12656610Y-10918508D01*
X12656610Y-10918508D02*
X12647086Y-10908984D01*
X12647086Y-10908984D02*
X12647086Y-10928031D01*
X12770896Y-11108984D02*
X12751848Y-11099460D01*
X12751848Y-11099460D02*
X12742324Y-11080412D01*
X12742324Y-11080412D02*
X12742324Y-10908984D01*
X12875658Y-11108984D02*
X12856610Y-11099460D01*
X12856610Y-11099460D02*
X12847086Y-11080412D01*
X12847086Y-11080412D02*
X12847086Y-10908984D01*
X13104229Y-11108984D02*
X13104229Y-10908984D01*
X13104229Y-10908984D02*
X13170896Y-11051841D01*
X13170896Y-11051841D02*
X13237562Y-10908984D01*
X13237562Y-10908984D02*
X13237562Y-11108984D01*
X13418515Y-11108984D02*
X13418515Y-11004222D01*
X13418515Y-11004222D02*
X13408991Y-10985174D01*
X13408991Y-10985174D02*
X13389943Y-10975650D01*
X13389943Y-10975650D02*
X13351848Y-10975650D01*
X13351848Y-10975650D02*
X13332801Y-10985174D01*
X13418515Y-11099460D02*
X13399467Y-11108984D01*
X13399467Y-11108984D02*
X13351848Y-11108984D01*
X13351848Y-11108984D02*
X13332801Y-11099460D01*
X13332801Y-11099460D02*
X13323277Y-11080412D01*
X13323277Y-11080412D02*
X13323277Y-11061365D01*
X13323277Y-11061365D02*
X13332801Y-11042317D01*
X13332801Y-11042317D02*
X13351848Y-11032793D01*
X13351848Y-11032793D02*
X13399467Y-11032793D01*
X13399467Y-11032793D02*
X13418515Y-11023270D01*
X13513753Y-10975650D02*
X13513753Y-11175650D01*
X13513753Y-10985174D02*
X13532801Y-10975650D01*
X13532801Y-10975650D02*
X13570896Y-10975650D01*
X13570896Y-10975650D02*
X13589943Y-10985174D01*
X13589943Y-10985174D02*
X13599467Y-10994698D01*
X13599467Y-10994698D02*
X13608991Y-11013746D01*
X13608991Y-11013746D02*
X13608991Y-11070889D01*
X13608991Y-11070889D02*
X13599467Y-11089936D01*
X13599467Y-11089936D02*
X13589943Y-11099460D01*
X13589943Y-11099460D02*
X13570896Y-11108984D01*
X13570896Y-11108984D02*
X13532801Y-11108984D01*
X13532801Y-11108984D02*
X13513753Y-11099460D01*
X13694705Y-11089936D02*
X13704229Y-11099460D01*
X13704229Y-11099460D02*
X13694705Y-11108984D01*
X13694705Y-11108984D02*
X13685182Y-11099460D01*
X13685182Y-11099460D02*
X13694705Y-11089936D01*
X13694705Y-11089936D02*
X13694705Y-11108984D01*
X13694705Y-10985174D02*
X13704229Y-10994698D01*
X13704229Y-10994698D02*
X13694705Y-11004222D01*
X13694705Y-11004222D02*
X13685182Y-10994698D01*
X13685182Y-10994698D02*
X13694705Y-10985174D01*
X13694705Y-10985174D02*
X13694705Y-11004222D01*
M02*
