%TF.GenerationSoftware,KiCad,Pcbnew,7.0.11-7.0.11~ubuntu22.04.1*%
%TF.CreationDate,2025-05-22T12:56:19-05:00*%
%TF.ProjectId,hf_bias_tee,68665f62-6961-4735-9f74-65652e6b6963,-*%
%TF.SameCoordinates,Original*%
%TF.FileFunction,Legend,Bot*%
%TF.FilePolarity,Positive*%
%FSLAX46Y46*%
G04 Gerber Fmt 4.6, Leading zero omitted, Abs format (unit mm)*
G04 Created by KiCad (PCBNEW 7.0.11-7.0.11~ubuntu22.04.1) date 2025-05-22 12:56:19*
%MOMM*%
%LPD*%
G01*
G04 APERTURE LIST*
%ADD10C,0.254000*%
G04 APERTURE END LIST*
D10*
X129083187Y-103625951D02*
X129566996Y-103964618D01*
X129083187Y-104206523D02*
X130099187Y-104206523D01*
X130099187Y-104206523D02*
X130099187Y-103819475D01*
X130099187Y-103819475D02*
X130050806Y-103722713D01*
X130050806Y-103722713D02*
X130002425Y-103674332D01*
X130002425Y-103674332D02*
X129905663Y-103625951D01*
X129905663Y-103625951D02*
X129760520Y-103625951D01*
X129760520Y-103625951D02*
X129663758Y-103674332D01*
X129663758Y-103674332D02*
X129615377Y-103722713D01*
X129615377Y-103722713D02*
X129566996Y-103819475D01*
X129566996Y-103819475D02*
X129566996Y-104206523D01*
X129615377Y-102851856D02*
X129615377Y-103190523D01*
X129083187Y-103190523D02*
X130099187Y-103190523D01*
X130099187Y-103190523D02*
X130099187Y-102706713D01*
X136703187Y-105270904D02*
X137186996Y-105609571D01*
X136703187Y-105851476D02*
X137719187Y-105851476D01*
X137719187Y-105851476D02*
X137719187Y-105464428D01*
X137719187Y-105464428D02*
X137670806Y-105367666D01*
X137670806Y-105367666D02*
X137622425Y-105319285D01*
X137622425Y-105319285D02*
X137525663Y-105270904D01*
X137525663Y-105270904D02*
X137380520Y-105270904D01*
X137380520Y-105270904D02*
X137283758Y-105319285D01*
X137283758Y-105319285D02*
X137235377Y-105367666D01*
X137235377Y-105367666D02*
X137186996Y-105464428D01*
X137186996Y-105464428D02*
X137186996Y-105851476D01*
X137235377Y-104496809D02*
X137235377Y-104835476D01*
X136703187Y-104835476D02*
X137719187Y-104835476D01*
X137719187Y-104835476D02*
X137719187Y-104351666D01*
X137090234Y-103964619D02*
X137090234Y-103190524D01*
X136703187Y-103577571D02*
X137477282Y-103577571D01*
X136703187Y-102706714D02*
X137719187Y-102706714D01*
X137719187Y-102706714D02*
X137719187Y-102464809D01*
X137719187Y-102464809D02*
X137670806Y-102319666D01*
X137670806Y-102319666D02*
X137574044Y-102222904D01*
X137574044Y-102222904D02*
X137477282Y-102174523D01*
X137477282Y-102174523D02*
X137283758Y-102126142D01*
X137283758Y-102126142D02*
X137138615Y-102126142D01*
X137138615Y-102126142D02*
X136945091Y-102174523D01*
X136945091Y-102174523D02*
X136848329Y-102222904D01*
X136848329Y-102222904D02*
X136751568Y-102319666D01*
X136751568Y-102319666D02*
X136703187Y-102464809D01*
X136703187Y-102464809D02*
X136703187Y-102706714D01*
X136799948Y-101110142D02*
X136751568Y-101158523D01*
X136751568Y-101158523D02*
X136703187Y-101303666D01*
X136703187Y-101303666D02*
X136703187Y-101400428D01*
X136703187Y-101400428D02*
X136751568Y-101545571D01*
X136751568Y-101545571D02*
X136848329Y-101642333D01*
X136848329Y-101642333D02*
X136945091Y-101690714D01*
X136945091Y-101690714D02*
X137138615Y-101739095D01*
X137138615Y-101739095D02*
X137283758Y-101739095D01*
X137283758Y-101739095D02*
X137477282Y-101690714D01*
X137477282Y-101690714D02*
X137574044Y-101642333D01*
X137574044Y-101642333D02*
X137670806Y-101545571D01*
X137670806Y-101545571D02*
X137719187Y-101400428D01*
X137719187Y-101400428D02*
X137719187Y-101303666D01*
X137719187Y-101303666D02*
X137670806Y-101158523D01*
X137670806Y-101158523D02*
X137622425Y-101110142D01*
X135394095Y-91896812D02*
X135394095Y-90880812D01*
X135394095Y-90880812D02*
X135152190Y-90880812D01*
X135152190Y-90880812D02*
X135007047Y-90929193D01*
X135007047Y-90929193D02*
X134910285Y-91025955D01*
X134910285Y-91025955D02*
X134861904Y-91122717D01*
X134861904Y-91122717D02*
X134813523Y-91316241D01*
X134813523Y-91316241D02*
X134813523Y-91461384D01*
X134813523Y-91461384D02*
X134861904Y-91654908D01*
X134861904Y-91654908D02*
X134910285Y-91751670D01*
X134910285Y-91751670D02*
X135007047Y-91848432D01*
X135007047Y-91848432D02*
X135152190Y-91896812D01*
X135152190Y-91896812D02*
X135394095Y-91896812D01*
X133797523Y-91800051D02*
X133845904Y-91848432D01*
X133845904Y-91848432D02*
X133991047Y-91896812D01*
X133991047Y-91896812D02*
X134087809Y-91896812D01*
X134087809Y-91896812D02*
X134232952Y-91848432D01*
X134232952Y-91848432D02*
X134329714Y-91751670D01*
X134329714Y-91751670D02*
X134378095Y-91654908D01*
X134378095Y-91654908D02*
X134426476Y-91461384D01*
X134426476Y-91461384D02*
X134426476Y-91316241D01*
X134426476Y-91316241D02*
X134378095Y-91122717D01*
X134378095Y-91122717D02*
X134329714Y-91025955D01*
X134329714Y-91025955D02*
X134232952Y-90929193D01*
X134232952Y-90929193D02*
X134087809Y-90880812D01*
X134087809Y-90880812D02*
X133991047Y-90880812D01*
X133991047Y-90880812D02*
X133845904Y-90929193D01*
X133845904Y-90929193D02*
X133797523Y-90977574D01*
X133798031Y-106210514D02*
X135068031Y-106210514D01*
X134463269Y-106210514D02*
X134463269Y-105484799D01*
X133798031Y-105484799D02*
X135068031Y-105484799D01*
X134463269Y-104456704D02*
X134463269Y-104880038D01*
X133798031Y-104880038D02*
X135068031Y-104880038D01*
X135068031Y-104880038D02*
X135068031Y-104275276D01*
X134463269Y-102400514D02*
X134402793Y-102219086D01*
X134402793Y-102219086D02*
X134342317Y-102158609D01*
X134342317Y-102158609D02*
X134221365Y-102098133D01*
X134221365Y-102098133D02*
X134039936Y-102098133D01*
X134039936Y-102098133D02*
X133918984Y-102158609D01*
X133918984Y-102158609D02*
X133858508Y-102219086D01*
X133858508Y-102219086D02*
X133798031Y-102340038D01*
X133798031Y-102340038D02*
X133798031Y-102823848D01*
X133798031Y-102823848D02*
X135068031Y-102823848D01*
X135068031Y-102823848D02*
X135068031Y-102400514D01*
X135068031Y-102400514D02*
X135007555Y-102279562D01*
X135007555Y-102279562D02*
X134947079Y-102219086D01*
X134947079Y-102219086D02*
X134826127Y-102158609D01*
X134826127Y-102158609D02*
X134705174Y-102158609D01*
X134705174Y-102158609D02*
X134584222Y-102219086D01*
X134584222Y-102219086D02*
X134523746Y-102279562D01*
X134523746Y-102279562D02*
X134463269Y-102400514D01*
X134463269Y-102400514D02*
X134463269Y-102823848D01*
X133798031Y-101553848D02*
X134644698Y-101553848D01*
X135068031Y-101553848D02*
X135007555Y-101614324D01*
X135007555Y-101614324D02*
X134947079Y-101553848D01*
X134947079Y-101553848D02*
X135007555Y-101493371D01*
X135007555Y-101493371D02*
X135068031Y-101553848D01*
X135068031Y-101553848D02*
X134947079Y-101553848D01*
X133798031Y-100404800D02*
X134463269Y-100404800D01*
X134463269Y-100404800D02*
X134584222Y-100465276D01*
X134584222Y-100465276D02*
X134644698Y-100586228D01*
X134644698Y-100586228D02*
X134644698Y-100828133D01*
X134644698Y-100828133D02*
X134584222Y-100949086D01*
X133858508Y-100404800D02*
X133798031Y-100525752D01*
X133798031Y-100525752D02*
X133798031Y-100828133D01*
X133798031Y-100828133D02*
X133858508Y-100949086D01*
X133858508Y-100949086D02*
X133979460Y-101009562D01*
X133979460Y-101009562D02*
X134100412Y-101009562D01*
X134100412Y-101009562D02*
X134221365Y-100949086D01*
X134221365Y-100949086D02*
X134281841Y-100828133D01*
X134281841Y-100828133D02*
X134281841Y-100525752D01*
X134281841Y-100525752D02*
X134342317Y-100404800D01*
X133858508Y-99860514D02*
X133798031Y-99739561D01*
X133798031Y-99739561D02*
X133798031Y-99497657D01*
X133798031Y-99497657D02*
X133858508Y-99376704D01*
X133858508Y-99376704D02*
X133979460Y-99316228D01*
X133979460Y-99316228D02*
X134039936Y-99316228D01*
X134039936Y-99316228D02*
X134160888Y-99376704D01*
X134160888Y-99376704D02*
X134221365Y-99497657D01*
X134221365Y-99497657D02*
X134221365Y-99679085D01*
X134221365Y-99679085D02*
X134281841Y-99800038D01*
X134281841Y-99800038D02*
X134402793Y-99860514D01*
X134402793Y-99860514D02*
X134463269Y-99860514D01*
X134463269Y-99860514D02*
X134584222Y-99800038D01*
X134584222Y-99800038D02*
X134644698Y-99679085D01*
X134644698Y-99679085D02*
X134644698Y-99497657D01*
X134644698Y-99497657D02*
X134584222Y-99376704D01*
X134281841Y-98771943D02*
X134281841Y-97804324D01*
X135068031Y-97380990D02*
X135068031Y-96655276D01*
X133798031Y-97018133D02*
X135068031Y-97018133D01*
X133858508Y-95748133D02*
X133798031Y-95869085D01*
X133798031Y-95869085D02*
X133798031Y-96110990D01*
X133798031Y-96110990D02*
X133858508Y-96231943D01*
X133858508Y-96231943D02*
X133979460Y-96292419D01*
X133979460Y-96292419D02*
X134463269Y-96292419D01*
X134463269Y-96292419D02*
X134584222Y-96231943D01*
X134584222Y-96231943D02*
X134644698Y-96110990D01*
X134644698Y-96110990D02*
X134644698Y-95869085D01*
X134644698Y-95869085D02*
X134584222Y-95748133D01*
X134584222Y-95748133D02*
X134463269Y-95687657D01*
X134463269Y-95687657D02*
X134342317Y-95687657D01*
X134342317Y-95687657D02*
X134221365Y-96292419D01*
X133858508Y-94659562D02*
X133798031Y-94780514D01*
X133798031Y-94780514D02*
X133798031Y-95022419D01*
X133798031Y-95022419D02*
X133858508Y-95143372D01*
X133858508Y-95143372D02*
X133979460Y-95203848D01*
X133979460Y-95203848D02*
X134463269Y-95203848D01*
X134463269Y-95203848D02*
X134584222Y-95143372D01*
X134584222Y-95143372D02*
X134644698Y-95022419D01*
X134644698Y-95022419D02*
X134644698Y-94780514D01*
X134644698Y-94780514D02*
X134584222Y-94659562D01*
X134584222Y-94659562D02*
X134463269Y-94599086D01*
X134463269Y-94599086D02*
X134342317Y-94599086D01*
X134342317Y-94599086D02*
X134221365Y-95203848D01*
X133023331Y-106391942D02*
X131753331Y-105968609D01*
X131753331Y-105968609D02*
X133023331Y-105545275D01*
X131753331Y-104456704D02*
X131753331Y-105182419D01*
X131753331Y-104819562D02*
X133023331Y-104819562D01*
X133023331Y-104819562D02*
X132841903Y-104940514D01*
X132841903Y-104940514D02*
X132720950Y-105061466D01*
X132720950Y-105061466D02*
X132660474Y-105182419D01*
X131813808Y-103851942D02*
X131753331Y-103851942D01*
X131753331Y-103851942D02*
X131632379Y-103912419D01*
X131632379Y-103912419D02*
X131571903Y-103972895D01*
X131753331Y-101614323D02*
X132358093Y-102037657D01*
X131753331Y-102340038D02*
X133023331Y-102340038D01*
X133023331Y-102340038D02*
X133023331Y-101856228D01*
X133023331Y-101856228D02*
X132962855Y-101735276D01*
X132962855Y-101735276D02*
X132902379Y-101674799D01*
X132902379Y-101674799D02*
X132781427Y-101614323D01*
X132781427Y-101614323D02*
X132599998Y-101614323D01*
X132599998Y-101614323D02*
X132479046Y-101674799D01*
X132479046Y-101674799D02*
X132418569Y-101735276D01*
X132418569Y-101735276D02*
X132358093Y-101856228D01*
X132358093Y-101856228D02*
X132358093Y-102340038D01*
X131813808Y-100586228D02*
X131753331Y-100707180D01*
X131753331Y-100707180D02*
X131753331Y-100949085D01*
X131753331Y-100949085D02*
X131813808Y-101070038D01*
X131813808Y-101070038D02*
X131934760Y-101130514D01*
X131934760Y-101130514D02*
X132418569Y-101130514D01*
X132418569Y-101130514D02*
X132539522Y-101070038D01*
X132539522Y-101070038D02*
X132599998Y-100949085D01*
X132599998Y-100949085D02*
X132599998Y-100707180D01*
X132599998Y-100707180D02*
X132539522Y-100586228D01*
X132539522Y-100586228D02*
X132418569Y-100525752D01*
X132418569Y-100525752D02*
X132297617Y-100525752D01*
X132297617Y-100525752D02*
X132176665Y-101130514D01*
X132599998Y-100102419D02*
X131753331Y-99800038D01*
X131753331Y-99800038D02*
X132599998Y-99497657D01*
X132237141Y-99013848D02*
X132237141Y-98046229D01*
M02*
