%TF.GenerationSoftware,KiCad,Pcbnew,7.0.11-7.0.11~ubuntu22.04.1*%
%TF.CreationDate,2025-05-22T12:56:19-05:00*%
%TF.ProjectId,hf_bias_tee,68665f62-6961-4735-9f74-65652e6b6963,-*%
%TF.SameCoordinates,Original*%
%TF.FileFunction,Copper,L1,Top*%
%TF.FilePolarity,Positive*%
%FSLAX46Y46*%
G04 Gerber Fmt 4.6, Leading zero omitted, Abs format (unit mm)*
G04 Created by KiCad (PCBNEW 7.0.11-7.0.11~ubuntu22.04.1) date 2025-05-22 12:56:19*
%MOMM*%
%LPD*%
G01*
G04 APERTURE LIST*
G04 Aperture macros list*
%AMRoundRect*
0 Rectangle with rounded corners*
0 $1 Rounding radius*
0 $2 $3 $4 $5 $6 $7 $8 $9 X,Y pos of 4 corners*
0 Add a 4 corners polygon primitive as box body*
4,1,4,$2,$3,$4,$5,$6,$7,$8,$9,$2,$3,0*
0 Add four circle primitives for the rounded corners*
1,1,$1+$1,$2,$3*
1,1,$1+$1,$4,$5*
1,1,$1+$1,$6,$7*
1,1,$1+$1,$8,$9*
0 Add four rect primitives between the rounded corners*
20,1,$1+$1,$2,$3,$4,$5,0*
20,1,$1+$1,$4,$5,$6,$7,0*
20,1,$1+$1,$6,$7,$8,$9,0*
20,1,$1+$1,$8,$9,$2,$3,0*%
G04 Aperture macros list end*
%TA.AperFunction,SMDPad,CuDef*%
%ADD10R,1.200000X1.200000*%
%TD*%
%TA.AperFunction,ComponentPad*%
%ADD11C,2.050000*%
%TD*%
%TA.AperFunction,ComponentPad*%
%ADD12C,2.250000*%
%TD*%
%TA.AperFunction,ComponentPad*%
%ADD13R,1.700000X1.700000*%
%TD*%
%TA.AperFunction,ComponentPad*%
%ADD14O,1.700000X1.700000*%
%TD*%
%TA.AperFunction,SMDPad,CuDef*%
%ADD15RoundRect,0.250000X-0.850000X0.375000X-0.850000X-0.375000X0.850000X-0.375000X0.850000X0.375000X0*%
%TD*%
%TA.AperFunction,ComponentPad*%
%ADD16C,0.700000*%
%TD*%
%TA.AperFunction,ComponentPad*%
%ADD17C,4.400000*%
%TD*%
%TA.AperFunction,ViaPad*%
%ADD18C,0.508000*%
%TD*%
%TA.AperFunction,Conductor*%
%ADD19C,1.270000*%
%TD*%
G04 APERTURE END LIST*
D10*
%TO.P,C1,1*%
%TO.N,Net-(C1-Pad1)*%
X133130000Y-103505000D03*
%TO.P,C1,2*%
%TO.N,Net-(C1-Pad2)*%
X131030000Y-103505000D03*
%TD*%
%TO.P,C2,1*%
%TO.N,Net-(J4-Pad1)*%
X133130000Y-97155000D03*
%TO.P,C2,2*%
%TO.N,GND*%
X131030000Y-97155000D03*
%TD*%
D11*
%TO.P,J1,1*%
%TO.N,Net-(C1-Pad2)*%
X125095000Y-103505000D03*
D12*
%TO.P,J1,2*%
%TO.N,GND*%
X122555000Y-100965000D03*
X122555000Y-106045000D03*
X127635000Y-100965000D03*
X127635000Y-106045000D03*
%TD*%
D11*
%TO.P,J2,1*%
%TO.N,Net-(C1-Pad1)*%
X141605000Y-103505000D03*
D12*
%TO.P,J2,2*%
%TO.N,GND*%
X139065000Y-100965000D03*
X139065000Y-106045000D03*
X144145000Y-100965000D03*
X144145000Y-106045000D03*
%TD*%
D13*
%TO.P,J4,1*%
%TO.N,Net-(J4-Pad1)*%
X143510000Y-88900000D03*
D14*
%TO.P,J4,2*%
%TO.N,GND*%
X143510000Y-86360000D03*
%TD*%
D15*
%TO.P,L1,1*%
%TO.N,Net-(J4-Pad1)*%
X134620000Y-99255000D03*
%TO.P,L1,2*%
%TO.N,Net-(C1-Pad1)*%
X134620000Y-101405000D03*
%TD*%
D16*
%TO.P,H1,1*%
%TO.N,GND*%
X122175000Y-95250000D03*
X122658274Y-94083274D03*
X122658274Y-96416726D03*
X123825000Y-93600000D03*
D17*
X123825000Y-95250000D03*
D16*
X123825000Y-96900000D03*
X124991726Y-94083274D03*
X124991726Y-96416726D03*
X125475000Y-95250000D03*
%TD*%
%TO.P,H2,1*%
%TO.N,GND*%
X141225000Y-95250000D03*
X141708274Y-94083274D03*
X141708274Y-96416726D03*
X142875000Y-93600000D03*
D17*
X142875000Y-95250000D03*
D16*
X142875000Y-96900000D03*
X144041726Y-94083274D03*
X144041726Y-96416726D03*
X144525000Y-95250000D03*
%TD*%
D18*
%TO.N,GND*%
X129540000Y-101600000D03*
X129540000Y-105410000D03*
X130810000Y-105410000D03*
X132080000Y-105410000D03*
X133350000Y-105410000D03*
X134620000Y-105410000D03*
X135890000Y-105410000D03*
X137160000Y-105410000D03*
X137160000Y-101600000D03*
X130810000Y-98425000D03*
X132080000Y-99060000D03*
X132080000Y-100330000D03*
X137160000Y-100330000D03*
X137160000Y-99060000D03*
X136525000Y-98425000D03*
X129540000Y-98425000D03*
X129540000Y-97155000D03*
X129540000Y-95885000D03*
X136525000Y-95885000D03*
X136525000Y-97155000D03*
X130810000Y-95885000D03*
X137795000Y-95885000D03*
X139065000Y-95885000D03*
X139700000Y-94615000D03*
X138430000Y-92075000D03*
X140970000Y-93345000D03*
X142240000Y-92075000D03*
X143510000Y-91440000D03*
X144780000Y-91440000D03*
X139065000Y-91440000D03*
X139700000Y-90805000D03*
X140335000Y-90170000D03*
X140335000Y-88900000D03*
X140335000Y-87630000D03*
X140335000Y-86360000D03*
X140335000Y-85090000D03*
X140970000Y-83820000D03*
X143510000Y-83820000D03*
X142240000Y-83820000D03*
X144780000Y-83820000D03*
X137160000Y-92075000D03*
X121920000Y-92710000D03*
X144780000Y-92710000D03*
X121920000Y-99060000D03*
X121920000Y-97790000D03*
X144780000Y-97790000D03*
X144780000Y-99060000D03*
X135128000Y-92075000D03*
X125857000Y-92710000D03*
X133985000Y-92075000D03*
X132842000Y-92710000D03*
X132842000Y-94615000D03*
X125730000Y-97790000D03*
X131953000Y-95885000D03*
X132080000Y-101600000D03*
X132842000Y-95504000D03*
X140970000Y-97536000D03*
X132842000Y-93599000D03*
X136144000Y-92075000D03*
X130810000Y-101600000D03*
%TD*%
D19*
%TO.N,Net-(J4-Pad1)*%
X134620000Y-99255000D02*
X134620000Y-97917000D01*
X134620000Y-97917000D02*
X134620000Y-97155000D01*
X138303000Y-94107000D02*
X134620000Y-94107000D01*
X143510000Y-88900000D02*
X138303000Y-94107000D01*
X134620000Y-94107000D02*
X134620000Y-97917000D01*
%TO.N,Net-(C1-Pad1)*%
X134620000Y-103505000D02*
X141605000Y-103505000D01*
X134620000Y-101405000D02*
X134620000Y-103505000D01*
X134620000Y-103505000D02*
X133130000Y-103505000D01*
%TO.N,Net-(C1-Pad2)*%
X125095000Y-103505000D02*
X131030000Y-103505000D01*
%TO.N,Net-(J4-Pad1)*%
X133130000Y-97155000D02*
X134620000Y-97155000D01*
%TD*%
%TA.AperFunction,Conductor*%
%TO.N,GND*%
G36*
X145966621Y-82595502D02*
G01*
X146013114Y-82649158D01*
X146024500Y-82701500D01*
X146024500Y-107798500D01*
X146004498Y-107866621D01*
X145950842Y-107913114D01*
X145898500Y-107924500D01*
X120801500Y-107924500D01*
X120733379Y-107904498D01*
X120686886Y-107850842D01*
X120675500Y-107798500D01*
X120675500Y-103505000D01*
X123556758Y-103505000D01*
X123575696Y-103745633D01*
X123632044Y-103980341D01*
X123632045Y-103980343D01*
X123724416Y-104203347D01*
X123850536Y-104409156D01*
X124007299Y-104592701D01*
X124190844Y-104749464D01*
X124396653Y-104875584D01*
X124619657Y-104967955D01*
X124854366Y-105024304D01*
X125095000Y-105043242D01*
X125335634Y-105024304D01*
X125570343Y-104967955D01*
X125793347Y-104875584D01*
X125999156Y-104749464D01*
X126082022Y-104678688D01*
X126146812Y-104649658D01*
X126163853Y-104648500D01*
X131082872Y-104648500D01*
X131146128Y-104642638D01*
X131241018Y-104633845D01*
X131295618Y-104618309D01*
X131330099Y-104613500D01*
X131678632Y-104613500D01*
X131678638Y-104613500D01*
X131678645Y-104613499D01*
X131678649Y-104613499D01*
X131739196Y-104606990D01*
X131739199Y-104606989D01*
X131739201Y-104606989D01*
X131876204Y-104555889D01*
X131993261Y-104468261D01*
X131993260Y-104468261D01*
X132000475Y-104462861D01*
X132001820Y-104464657D01*
X132053217Y-104436592D01*
X132124032Y-104441657D01*
X132158712Y-104463945D01*
X132159525Y-104462861D01*
X132283792Y-104555887D01*
X132283794Y-104555888D01*
X132283796Y-104555889D01*
X132342875Y-104577924D01*
X132420795Y-104606988D01*
X132420803Y-104606990D01*
X132481350Y-104613499D01*
X132481355Y-104613499D01*
X132481362Y-104613500D01*
X132829901Y-104613500D01*
X132864381Y-104618309D01*
X132918982Y-104633845D01*
X132986760Y-104640125D01*
X133077128Y-104648500D01*
X133077132Y-104648500D01*
X134514039Y-104648500D01*
X134567132Y-104648500D01*
X140536147Y-104648500D01*
X140604268Y-104668502D01*
X140617974Y-104678686D01*
X140700844Y-104749464D01*
X140906653Y-104875584D01*
X141129657Y-104967955D01*
X141364366Y-105024304D01*
X141605000Y-105043242D01*
X141845634Y-105024304D01*
X142080343Y-104967955D01*
X142303347Y-104875584D01*
X142509156Y-104749464D01*
X142692701Y-104592701D01*
X142849464Y-104409156D01*
X142975584Y-104203347D01*
X143067955Y-103980343D01*
X143124304Y-103745634D01*
X143143242Y-103505000D01*
X143124304Y-103264366D01*
X143067955Y-103029657D01*
X142975584Y-102806653D01*
X142849464Y-102600844D01*
X142692701Y-102417299D01*
X142509156Y-102260536D01*
X142303347Y-102134416D01*
X142226870Y-102102738D01*
X142080341Y-102042044D01*
X141919783Y-102003497D01*
X141845634Y-101985696D01*
X141605000Y-101966758D01*
X141364366Y-101985696D01*
X141129658Y-102042044D01*
X140906654Y-102134415D01*
X140700845Y-102260535D01*
X140617978Y-102331311D01*
X140553188Y-102360342D01*
X140536147Y-102361500D01*
X136228267Y-102361500D01*
X136160146Y-102341498D01*
X136113653Y-102287842D01*
X136103549Y-102217568D01*
X136121026Y-102169353D01*
X136162115Y-102102738D01*
X136217887Y-101934426D01*
X136228500Y-101830545D01*
X136228499Y-100979456D01*
X136217887Y-100875574D01*
X136162115Y-100707262D01*
X136069030Y-100556348D01*
X136069029Y-100556347D01*
X136069024Y-100556341D01*
X135943654Y-100430971D01*
X135940956Y-100428838D01*
X135939584Y-100426901D01*
X135938463Y-100425780D01*
X135938654Y-100425588D01*
X135899925Y-100370899D01*
X135896733Y-100299974D01*
X135932392Y-100238582D01*
X135940956Y-100231162D01*
X135943649Y-100229031D01*
X135943652Y-100229030D01*
X136069030Y-100103652D01*
X136162115Y-99952738D01*
X136217887Y-99784426D01*
X136228500Y-99680545D01*
X136228499Y-98829456D01*
X136217887Y-98725574D01*
X136162115Y-98557262D01*
X136069030Y-98406348D01*
X136069029Y-98406347D01*
X136069024Y-98406341D01*
X135943658Y-98280975D01*
X135943652Y-98280970D01*
X135904771Y-98256988D01*
X135823352Y-98206768D01*
X135775875Y-98153983D01*
X135763500Y-98099528D01*
X135763500Y-95376500D01*
X135783502Y-95308379D01*
X135837158Y-95261886D01*
X135889500Y-95250500D01*
X138273668Y-95250500D01*
X138279487Y-95250634D01*
X138356037Y-95254173D01*
X138431937Y-95243585D01*
X138437708Y-95242917D01*
X138514012Y-95235846D01*
X138514014Y-95235845D01*
X138514018Y-95235845D01*
X138531180Y-95230961D01*
X138548248Y-95227361D01*
X138565927Y-95224896D01*
X138638652Y-95200519D01*
X138644119Y-95198827D01*
X138717850Y-95177850D01*
X138733820Y-95169896D01*
X138749943Y-95163218D01*
X138766862Y-95157549D01*
X138833839Y-95120241D01*
X138838911Y-95117567D01*
X138907554Y-95083389D01*
X138921800Y-95072630D01*
X138936413Y-95063108D01*
X138952002Y-95054426D01*
X139010971Y-95005457D01*
X139015521Y-95001855D01*
X139076665Y-94955682D01*
X139076666Y-94955680D01*
X139076671Y-94955677D01*
X139128328Y-94899010D01*
X139132306Y-94894845D01*
X143731748Y-90295405D01*
X143794060Y-90261379D01*
X143820843Y-90258500D01*
X144408632Y-90258500D01*
X144408638Y-90258500D01*
X144408645Y-90258499D01*
X144408649Y-90258499D01*
X144469196Y-90251990D01*
X144469199Y-90251989D01*
X144469201Y-90251989D01*
X144606204Y-90200889D01*
X144723261Y-90113261D01*
X144810889Y-89996204D01*
X144861989Y-89859201D01*
X144868500Y-89798638D01*
X144868500Y-88001362D01*
X144868499Y-88001350D01*
X144861990Y-87940803D01*
X144861988Y-87940795D01*
X144810889Y-87803797D01*
X144810887Y-87803792D01*
X144723261Y-87686738D01*
X144606207Y-87599112D01*
X144606202Y-87599110D01*
X144469204Y-87548011D01*
X144469196Y-87548009D01*
X144408649Y-87541500D01*
X144408638Y-87541500D01*
X142611362Y-87541500D01*
X142611350Y-87541500D01*
X142550803Y-87548009D01*
X142550795Y-87548011D01*
X142413797Y-87599110D01*
X142413792Y-87599112D01*
X142296738Y-87686738D01*
X142209112Y-87803792D01*
X142209110Y-87803797D01*
X142158011Y-87940795D01*
X142158009Y-87940803D01*
X142151500Y-88001350D01*
X142151500Y-88589157D01*
X142131498Y-88657278D01*
X142114595Y-88678252D01*
X137866252Y-92926595D01*
X137803940Y-92960621D01*
X137777157Y-92963500D01*
X134514037Y-92963500D01*
X134467563Y-92972186D01*
X134456042Y-92973793D01*
X134408986Y-92978154D01*
X134408982Y-92978154D01*
X134408982Y-92978155D01*
X134363513Y-92991091D01*
X134352193Y-92993753D01*
X134305728Y-93002439D01*
X134305727Y-93002439D01*
X134261639Y-93019518D01*
X134250609Y-93023214D01*
X134205159Y-93036146D01*
X134205150Y-93036149D01*
X134162833Y-93057220D01*
X134152191Y-93061919D01*
X134108120Y-93078992D01*
X134108108Y-93078998D01*
X134067921Y-93103880D01*
X134057759Y-93109541D01*
X134015443Y-93130612D01*
X134015441Y-93130613D01*
X133977722Y-93159097D01*
X133968126Y-93165671D01*
X133927936Y-93190556D01*
X133892999Y-93222404D01*
X133884053Y-93229832D01*
X133846328Y-93258322D01*
X133814481Y-93293256D01*
X133806256Y-93301481D01*
X133771322Y-93333328D01*
X133742832Y-93371053D01*
X133735404Y-93379999D01*
X133703556Y-93414936D01*
X133678671Y-93455126D01*
X133672097Y-93464722D01*
X133643613Y-93502441D01*
X133643612Y-93502443D01*
X133622541Y-93544759D01*
X133616880Y-93554921D01*
X133591998Y-93595108D01*
X133591992Y-93595120D01*
X133574919Y-93639191D01*
X133570220Y-93649833D01*
X133549149Y-93692150D01*
X133549146Y-93692159D01*
X133536214Y-93737609D01*
X133532518Y-93748639D01*
X133515439Y-93792727D01*
X133515439Y-93792728D01*
X133506753Y-93839193D01*
X133504090Y-93850519D01*
X133491154Y-93895986D01*
X133486793Y-93943042D01*
X133485186Y-93954563D01*
X133476500Y-94001037D01*
X133476500Y-95885500D01*
X133456498Y-95953621D01*
X133402842Y-96000114D01*
X133350500Y-96011500D01*
X133077128Y-96011500D01*
X132918987Y-96026154D01*
X132918983Y-96026154D01*
X132864382Y-96041690D01*
X132829901Y-96046500D01*
X132481350Y-96046500D01*
X132420803Y-96053009D01*
X132420795Y-96053011D01*
X132283797Y-96104110D01*
X132283792Y-96104112D01*
X132166738Y-96191738D01*
X132079112Y-96308792D01*
X132079110Y-96308797D01*
X132028011Y-96445795D01*
X132028009Y-96445803D01*
X132021500Y-96506350D01*
X132021500Y-96850126D01*
X132019355Y-96873278D01*
X131986500Y-97049040D01*
X131986500Y-97260959D01*
X132019355Y-97436721D01*
X132021500Y-97459873D01*
X132021500Y-97803649D01*
X132028009Y-97864196D01*
X132028011Y-97864204D01*
X132079110Y-98001202D01*
X132079112Y-98001207D01*
X132166738Y-98118261D01*
X132283792Y-98205887D01*
X132283794Y-98205888D01*
X132283796Y-98205889D01*
X132342875Y-98227924D01*
X132420795Y-98256988D01*
X132420803Y-98256990D01*
X132481350Y-98263499D01*
X132481355Y-98263499D01*
X132481362Y-98263500D01*
X132829901Y-98263500D01*
X132864381Y-98268309D01*
X132918982Y-98283845D01*
X133026583Y-98293815D01*
X133092564Y-98320016D01*
X133133908Y-98377732D01*
X133137485Y-98448639D01*
X133122195Y-98485423D01*
X133077886Y-98557260D01*
X133022113Y-98725572D01*
X133022112Y-98725579D01*
X133011500Y-98829446D01*
X133011500Y-99680544D01*
X133022112Y-99784425D01*
X133077885Y-99952738D01*
X133170970Y-100103652D01*
X133170975Y-100103658D01*
X133296344Y-100229027D01*
X133299049Y-100231166D01*
X133300421Y-100233104D01*
X133301537Y-100234220D01*
X133301346Y-100234410D01*
X133340076Y-100289108D01*
X133343264Y-100360033D01*
X133307602Y-100421423D01*
X133299049Y-100428834D01*
X133296344Y-100430972D01*
X133170975Y-100556341D01*
X133170970Y-100556347D01*
X133077885Y-100707262D01*
X133022113Y-100875572D01*
X133022112Y-100875579D01*
X133011500Y-100979446D01*
X133011500Y-101830544D01*
X133022112Y-101934425D01*
X133077885Y-102102738D01*
X133122195Y-102174575D01*
X133140932Y-102243055D01*
X133119673Y-102310793D01*
X133065165Y-102356285D01*
X133026580Y-102366184D01*
X132918987Y-102376154D01*
X132918983Y-102376154D01*
X132864382Y-102391690D01*
X132829901Y-102396500D01*
X132481350Y-102396500D01*
X132420803Y-102403009D01*
X132420795Y-102403011D01*
X132283797Y-102454110D01*
X132283792Y-102454112D01*
X132159525Y-102547139D01*
X132158179Y-102545342D01*
X132106783Y-102573408D01*
X132035968Y-102568343D01*
X132001287Y-102546054D01*
X132000475Y-102547139D01*
X131876207Y-102454112D01*
X131876202Y-102454110D01*
X131739204Y-102403011D01*
X131739196Y-102403009D01*
X131678649Y-102396500D01*
X131678638Y-102396500D01*
X131330099Y-102396500D01*
X131295618Y-102391690D01*
X131241014Y-102376154D01*
X131082872Y-102361500D01*
X131082868Y-102361500D01*
X126163853Y-102361500D01*
X126095732Y-102341498D01*
X126082022Y-102331311D01*
X126057999Y-102310793D01*
X125999156Y-102260536D01*
X125793347Y-102134416D01*
X125716870Y-102102738D01*
X125570341Y-102042044D01*
X125409783Y-102003497D01*
X125335634Y-101985696D01*
X125095000Y-101966758D01*
X124854366Y-101985696D01*
X124619658Y-102042044D01*
X124396654Y-102134415D01*
X124190845Y-102260535D01*
X124007299Y-102417299D01*
X123850535Y-102600845D01*
X123724415Y-102806654D01*
X123632044Y-103029658D01*
X123575696Y-103264366D01*
X123556758Y-103505000D01*
X120675500Y-103505000D01*
X120675500Y-82701500D01*
X120695502Y-82633379D01*
X120749158Y-82586886D01*
X120801500Y-82575500D01*
X145898500Y-82575500D01*
X145966621Y-82595502D01*
G37*
%TD.AperFunction*%
%TD*%
M02*
