%TF.GenerationSoftware,KiCad,Pcbnew,7.0.11-7.0.11~ubuntu22.04.1*%
%TF.CreationDate,2025-05-22T12:56:19-05:00*%
%TF.ProjectId,hf_bias_tee,68665f62-6961-4735-9f74-65652e6b6963,-*%
%TF.SameCoordinates,Original*%
%TF.FileFunction,Paste,Top*%
%TF.FilePolarity,Positive*%
%FSLAX46Y46*%
G04 Gerber Fmt 4.6, Leading zero omitted, Abs format (unit mm)*
G04 Created by KiCad (PCBNEW 7.0.11-7.0.11~ubuntu22.04.1) date 2025-05-22 12:56:19*
%MOMM*%
%LPD*%
G01*
G04 APERTURE LIST*
G04 Aperture macros list*
%AMRoundRect*
0 Rectangle with rounded corners*
0 $1 Rounding radius*
0 $2 $3 $4 $5 $6 $7 $8 $9 X,Y pos of 4 corners*
0 Add a 4 corners polygon primitive as box body*
4,1,4,$2,$3,$4,$5,$6,$7,$8,$9,$2,$3,0*
0 Add four circle primitives for the rounded corners*
1,1,$1+$1,$2,$3*
1,1,$1+$1,$4,$5*
1,1,$1+$1,$6,$7*
1,1,$1+$1,$8,$9*
0 Add four rect primitives between the rounded corners*
20,1,$1+$1,$2,$3,$4,$5,0*
20,1,$1+$1,$4,$5,$6,$7,0*
20,1,$1+$1,$6,$7,$8,$9,0*
20,1,$1+$1,$8,$9,$2,$3,0*%
G04 Aperture macros list end*
%ADD10C,0.150000*%
%ADD11R,1.200000X1.200000*%
%ADD12RoundRect,0.250000X-0.850000X0.375000X-0.850000X-0.375000X0.850000X-0.375000X0.850000X0.375000X0*%
G04 APERTURE END LIST*
D10*
X123964819Y-90611077D02*
X124964819Y-90277744D01*
X124964819Y-90277744D02*
X123964819Y-89944411D01*
X124917200Y-89230125D02*
X124964819Y-89325363D01*
X124964819Y-89325363D02*
X124964819Y-89515839D01*
X124964819Y-89515839D02*
X124917200Y-89611077D01*
X124917200Y-89611077D02*
X124821961Y-89658696D01*
X124821961Y-89658696D02*
X124441009Y-89658696D01*
X124441009Y-89658696D02*
X124345771Y-89611077D01*
X124345771Y-89611077D02*
X124298152Y-89515839D01*
X124298152Y-89515839D02*
X124298152Y-89325363D01*
X124298152Y-89325363D02*
X124345771Y-89230125D01*
X124345771Y-89230125D02*
X124441009Y-89182506D01*
X124441009Y-89182506D02*
X124536247Y-89182506D01*
X124536247Y-89182506D02*
X124631485Y-89658696D01*
X124964819Y-88753934D02*
X124298152Y-88753934D01*
X124488628Y-88753934D02*
X124393390Y-88706315D01*
X124393390Y-88706315D02*
X124345771Y-88658696D01*
X124345771Y-88658696D02*
X124298152Y-88563458D01*
X124298152Y-88563458D02*
X124298152Y-88468220D01*
X124869580Y-88134886D02*
X124917200Y-88087267D01*
X124917200Y-88087267D02*
X124964819Y-88134886D01*
X124964819Y-88134886D02*
X124917200Y-88182505D01*
X124917200Y-88182505D02*
X124869580Y-88134886D01*
X124869580Y-88134886D02*
X124964819Y-88134886D01*
X124345771Y-88134886D02*
X124393390Y-88087267D01*
X124393390Y-88087267D02*
X124441009Y-88134886D01*
X124441009Y-88134886D02*
X124393390Y-88182505D01*
X124393390Y-88182505D02*
X124345771Y-88134886D01*
X124345771Y-88134886D02*
X124441009Y-88134886D01*
X124964819Y-86372982D02*
X124964819Y-86944410D01*
X124964819Y-86658696D02*
X123964819Y-86658696D01*
X123964819Y-86658696D02*
X124107676Y-86753934D01*
X124107676Y-86753934D02*
X124202914Y-86849172D01*
X124202914Y-86849172D02*
X124250533Y-86944410D01*
X124869580Y-85944410D02*
X124917200Y-85896791D01*
X124917200Y-85896791D02*
X124964819Y-85944410D01*
X124964819Y-85944410D02*
X124917200Y-85992029D01*
X124917200Y-85992029D02*
X124869580Y-85944410D01*
X124869580Y-85944410D02*
X124964819Y-85944410D01*
X124964819Y-84944411D02*
X124964819Y-85515839D01*
X124964819Y-85230125D02*
X123964819Y-85230125D01*
X123964819Y-85230125D02*
X124107676Y-85325363D01*
X124107676Y-85325363D02*
X124202914Y-85420601D01*
X124202914Y-85420601D02*
X124250533Y-85515839D01*
D11*
%TO.C,C1*%
X133130000Y-103505000D03*
X131030000Y-103505000D03*
%TD*%
%TO.C,C2*%
X133130000Y-97155000D03*
X131030000Y-97155000D03*
%TD*%
D12*
%TO.C,L1*%
X134620000Y-99255000D03*
X134620000Y-101405000D03*
%TD*%
M02*
