M48
; DRILL file {KiCad 7.0.11-7.0.11~ubuntu22.04.1} date Thu 22 May 2025 12:56:23 PM CDT
; FORMAT={-:-/ absolute / inch / decimal}
; #@! TF.CreationDate,2025-05-22T12:56:23-05:00
; #@! TF.GenerationSoftware,Kicad,Pcbnew,7.0.11-7.0.11~ubuntu22.04.1
; #@! TF.FileFunction,Plated,1,2,PTH
FMAT,2
INCH
; #@! TA.AperFunction,Plated,PTH,ViaDrill
T1C0.0100
; #@! TA.AperFunction,Plated,PTH,ComponentDrill
T2C0.0157
; #@! TA.AperFunction,Plated,PTH,ComponentDrill
T3C0.0394
; #@! TA.AperFunction,Plated,PTH,ComponentDrill
T4C0.0591
; #@! TA.AperFunction,Plated,PTH,ComponentDrill
T5C0.0669
; #@! TA.AperFunction,Plated,PTH,ComponentDrill
T6C0.0866
%
G90
G05
T1
X4.8Y-3.65
X4.8Y-3.85
X4.8Y-3.9
X4.95Y-3.85
X4.955Y-3.65
X5.1Y-3.775
X5.1Y-3.825
X5.1Y-3.875
X5.1Y-4.0
X5.1Y-4.15
X5.15Y-3.775
X5.15Y-3.875
X5.15Y-4.0
X5.15Y-4.15
X5.195Y-3.775
X5.2Y-3.9
X5.2Y-3.95
X5.2Y-4.0
X5.2Y-4.15
X5.23Y-3.65
X5.23Y-3.685
X5.23Y-3.725
X5.23Y-3.76
X5.25Y-4.15
X5.275Y-3.625
X5.3Y-4.15
X5.32Y-3.625
X5.35Y-4.15
X5.36Y-3.625
X5.375Y-3.775
X5.375Y-3.825
X5.375Y-3.875
X5.4Y-3.625
X5.4Y-3.9
X5.4Y-3.95
X5.4Y-4.0
X5.4Y-4.15
X5.425Y-3.775
X5.45Y-3.625
X5.475Y-3.6
X5.475Y-3.775
X5.5Y-3.575
X5.5Y-3.725
X5.525Y-3.35
X5.525Y-3.4
X5.525Y-3.45
X5.525Y-3.5
X5.525Y-3.55
X5.55Y-3.3
X5.55Y-3.675
X5.55Y-3.84
X5.6Y-3.3
X5.6Y-3.625
X5.65Y-3.3
X5.65Y-3.6
X5.7Y-3.3
X5.7Y-3.6
X5.7Y-3.65
X5.7Y-3.85
X5.7Y-3.9
T2
X4.81Y-3.75
X4.8291Y-3.7041
X4.8291Y-3.7959
X4.875Y-3.685
X4.875Y-3.815
X4.9209Y-3.7041
X4.9209Y-3.7959
X4.94Y-3.75
X5.56Y-3.75
X5.5791Y-3.7041
X5.5791Y-3.7959
X5.625Y-3.685
X5.625Y-3.815
X5.6709Y-3.7041
X5.6709Y-3.7959
X5.69Y-3.75
T3
X5.65Y-3.4
X5.65Y-3.5
T4
X4.925Y-4.075
X5.575Y-4.075
T5
X4.825Y-3.975
X4.825Y-4.175
X5.025Y-3.975
X5.025Y-4.175
X5.475Y-3.975
X5.475Y-4.175
X5.675Y-3.975
X5.675Y-4.175
T6
X4.875Y-3.75
X5.625Y-3.75
M30
